<svg height="29.495626" viewBox="0 0 171 29.4956255" width="171" xmlns="http://www.w3.org/2000/svg" xmlns:xlink="http://www.w3.org/1999/xlink"><mask id="a" fill="#fff"><path d="m0 5.75524255c0-3.17853138 2.57130472-5.75524255 5.74317292-5.75524255h17.94738798c3.1719272 0 5.7432404 2.57671117 5.7432404 5.75524255v17.98516565c0 3.1785061-2.5713132 5.7552173-5.7432404 5.7552173h-17.94738798c-3.1718682 0-5.74317292-2.5767112-5.74317292-5.7552173z" fill="#fff" fill-rule="evenodd"/></mask><g fill="none" fill-rule="nonzero"><path d="m0 5.75524255c0-3.17853138 2.57130472-5.75524255 5.74317292-5.75524255h17.94738798c3.1719272 0 5.7432404 2.57671117 5.7432404 5.75524255v17.98516565c0 3.1785061-2.5713132 5.7552173-5.7432404 5.7552173h-17.94738798c-3.1718682 0-5.74317292-2.5767112-5.74317292-5.7552173z" fill="#006dff"/><g fill="#fff"><path d="m26.7372372 12.1380387c-.4802551-1.5636546-1.5225791-2.74936349-3.0129387-3.43002009-1.8951268-.86525203-4.0491899-.73133052-5.7626395.35778752-1.1477541.72949181-2.0468618 1.82841067-2.672273 3.26672997-.631484 1.4523204-.9667517 3.2379686-.9960191 5.3066755-.0030364.2354886-.0060728.4629646-.0091092.6831026-.0036267.3130852-.3322312.5166917-.6114101.377271-.3815725-.1901959-.7301665-.4225638-1.0483967-.6989593-1.356843-1.1783709-2.2040791-3.178-2.5272012-5.9591612h2.7820046c.4620368 0 .8369462-.3760902.8369462-.8396451v-2.35674189c0-.46357185-.3749094-.8396536-.8369462-.8396536h-2.9142561c.0771748-2.67846385.3992848-5.69618483.7580001-8.00542411h-4.07139764c-.35226298 2.40676632-.64459951 5.33237515-.71323871 8.00542411h-2.94775758c-.46203679 0-.83690398.37608175-.83690398.8396536v2.35674189c0 .4635549.37486719.8396451.83690398.8396451h3.06296314c.39803651 4.0573713 1.71830789 7.0837206 3.9382521 9.0112355 1.15332079 1.0010797 2.52230929 1.6829172 4.08942199 2.0406203.1822675.0415817.3163746.1975338.3291949.3852837.1052614 1.4997218.2848299 3.3455917.5813836 6.0171056h4.0461535c-.2954573-2.6299323-.4782309-4.4494024-.5880468-5.9045906-.0165315-.2140652.1285403-.4072975.3388944-.4494695.69179-.1369748 1.4470068-.3454733 2.2272737-.6579681 2.0950222-.83838 3.7657095-2.2131039 4.8318184-3.9760635.9393399-1.5532803 1.5787522-4.1252682.8887335-6.368989zm-4.3283687 4.275738c-.6180733 1.0218283-1.5878614 1.80277-2.8831332 2.3206426-.2285724.0917663-.4546989.1700376-.6753429.2366694-.2736965.0831633-.5486582-.1259257-.5455638-.4127798.0030627-.2751304.0066895-.5607194.0109911-.8621651.036521-2.6148346.6923804-4.5172994 1.7987215-5.2205602.3535703-.2244395.7083215-.2984093 1.0222501-.2984093.405948 0 .7435772.1235641.9209528.2048718.4376614.1999797.6955012.4916415.8350906.946003.2914087.948449-.0170375 2.3139794-.4839662 3.086318z" mask="url(#a)"/><path d="m42.9111393 20.9946715c-.7934246 0-1.4716352-.1279499-2.0347162-.3836811-.563081-.2686359-.9918018-.6778733-1.2860783-1.2277966-.2815405-.5499233-.4223107-1.2406168-.4223107-2.0719119v-4.0286943h-1.4972758c-.1407703 0-.2558999-.0447023-.3455577-.1342757-.0895734-.0894891-.1343601-.2046187-.1343601-.3453046v-1.3045497c0-.1406859.0447867-.2557312.1343601-.3453046.0896578-.089489.2047874-.1342757.3455577-.1342757h1.4972758v-3.16537372c0-.14067746.0447867-.25579024.1343601-.34531303.1023937-.08952279.2175233-.13428419.3454733-.13428419h1.88121c.1407702 0 .2558999.0447614.3454733.13428419s.1343601.20463557.1343601.34531303v3.16537372h2.3995043c.1279499 0 .2366694.0447867.3263272.1342757.0895734.0895734.1343601.2046187.1343601.3453046v1.3045497c0 .1406859-.0447867.2558155-.1343601.3453046-.0896578.0895734-.1983773.1342757-.3263272.1342757h-2.3995043v3.7985193c0 .4859905.0832476.8696717.2495741 1.1510435.1791468.2685515.4862435.4028272.9213745.4028272h1.4012923c.12795 0 .2367538.0447867.3263272.1342758.0895734.0895734.1343601.1982929.1343601.3261585v1.4195949c0 .1406859-.0447867.2558156-.1343601.3453046-.0895734.0895734-.1983772.1343601-.3263272.1343601z"/><path d="m47.4651284 20.9946715c-.1279499 0-.2367538-.0447867-.3263272-.1343601-.0895734-.089489-.1343601-.2046187-.1343601-.3453046v-9.0165492c0-.1278656.0447867-.2365851.1343601-.3260741.0895734-.1023094.1983773-.1535062.3263272-.1535062h1.8811257c.1279499 0 .2367538.0511968.3263272.1535062.1023937.089489.1535905.1982085.1535905.3260741v.7673623c.3199171-.3964171.710177-.7033451 1.1709487-.9207841.4734232-.217439 1.0173581-.3261585 1.6315515-.3261585h.8253911c.1280343 0 .2367538.0447867.3263272.1342757.0896577.0895734.1344444.2046187.1344444.3453046v1.6498543c0 .1406859-.0447867.2558155-.1344444.3453046-.0895734.0895734-.1982929.1342757-.3263272.1342757h-1.6891586c-.563081 0-1.0045378.1599164-1.3244549.4796647-.3200013.3069281-.4799177.7481319-.4799177 1.3236958v5.0837541c0 .1406859-.0447867.2558156-.1343601.3453046-.0895734.0895734-.2047874.1343601-.3455576.1343601z"/><path d="m58.4023606 21.1864699c-.6782949 0-1.2860782-.1278656-1.823603-.3836811-.5374404-.2685515-.9661612-.6266764-1.2860783-1.0742904-.319917-.4476139-.4799177-.9464247-.4799177-1.496348 0-.9080482.3647037-1.624298 1.0941956-2.1486651.7422277-.524367 1.7147991-.8824919 2.9177142-1.0742903l2.5145496-.3645351v-.3453046c0-.4987264-.1151297-.8824076-.3454733-1.1510434-.2303437-.2685515-.6334239-.4028273-1.2093252-.4028273-.4223107 0-.7614582.0830789-1.0173581.2494054-.2559843.1662422-.4542771.3836812-.5950474.6522327-.1023937.1662421-.2495741.2494054-.4415412.2494054h-1.8235186c-.1407703 0-.2495741-.0383766-.3263272-.1151297-.0768375-.089489-.1088039-.1917984-.0959836-.306928 0-.217439.0831633-.4732546.2494898-.7673623.1664108-.2941921.4223107-.5819741.7678683-.8632615.3454733-.2941921.7870145-.5371874 1.3244549-.7290701.5375247-.1917984 1.1965049-.2876976 1.9771935-.2876976.8061606 0 1.4971915.0958992 2.0730928.2876976.5758169.1918827 1.0365042.4604342 1.3820618.8057388.3454733.3453046.6014576.7482162.7677841 1.2086505.1664108.4476139.249574.9336044.249574 1.4579715v5.9278695c0 .1406859-.0447866.2558156-.13436.3453046-.0895734.0895734-.2047874.1343601-.3455577.1343601h-1.8811257c-.1279499 0-.2367537-.0447867-.3263271-.1343601-.0895734-.089489-.1343601-.2046187-.1343601-.3453046v-.7097553c-.1663265.2429953-.3903444.4731702-.6718848.6906092-.2815405.2046187-.6206037.3708609-1.0173582.4988108-.3838498.1278656-.8382113.1917984-1.3628314.1917984zm.7677841-1.9951588c.4223107 0 .7998347-.0894891 1.1325721-.2685515.3327373-.1790625.5950473-.4540241.7870144-.824885.1919671-.3709452.2879507-.8377052.2879507-1.4004488v-.3261585l-1.7852265.2877819c-.6910309.1150453-1.1965049.287782-1.5164219.5179569-.3199171.230175-.4799178.5115468-.4799178.8441154 0 .2429953.0704273.4540241.2111976.6330866.1535062.1790624.3518834.3133382.5950473.4028272.243164.0895734.4990639.1342758.7677841.1342758z"/><path d="m70.1578147 20.9946715c-.1919671 0-.3391475-.0447867-.4415412-.1343601-.0895734-.1023093-.1663265-.2173546-.2303437-.3453046l-3.6087451-8.9014195c-.0255563-.0511125-.0383766-.1087195-.0383766-.1726523 0-.1151297.0383766-.2110289.1151297-.287782.0895734-.089489.1919671-.1342757.3071811-.1342757h1.8619795c.1663265 0 .2878663.0447867.3647038.1342757.0895734.0895734.147096.1726523.1727366.2494054l2.3610434 6.3307812 2.3610434-6.3307812c.0383766-.0767531.0959836-.159832.1727367-.2494054.0895734-.089489.2111975-.1342757.3647037-.1342757h1.8619796c.115214 0 .2111975.0447867.2879506.1342757.0895734.0767531.1343601.1726523.1343601.287782 0 .0639328-.0064102.1215398-.0192304.1726523l-3.6278913 8.9014195c-.0511968.12795-.1279499.2429953-.2303436.3453046-.1023937.0895734-.2495741.1343601-.4415412.1343601z"/><path d="m82.2020627 21.1864699c-1.4716352 0-2.6425839-.4092374-3.5127616-1.2277965-.8574417-.8184748-1.3117189-2.0078948-1.3629157-3.56826 0-.1023094 0-.2365851 0-.4028273 0-.1790624 0-.3197483 0-.4220577.0511968-.9848013.2751303-1.8289167.6718848-2.5323462.3966701-.7161654.953341-1.2596786 1.6700125-1.6306238.7165872-.3836811 1.5547985-.5754795 2.5145496-.5754795 1.0749651 0 1.9707834.2237648 2.6875393.6713787.7295761.434878 1.2727519 1.0359982 1.6312142 1.8033605.3711139.754542.5566708 1.6242136.5566708 2.6090149v.4412882c0 .1278656-.0506064.2365851-.1535062.3260741-.0894047.0895734-.1982086.1342758-.3264115.1342758h-6.2766323v.0767531.0767531c.0128203.4092374.0895734.7865084.2303437 1.1318973.1535905.3324843.3647037.6010358.6334239.8056545.2815405.2047031.6142778.3070124.998212.3070124.319917 0 .5822271-.0447867.7870144-.1342757.2047031-.0895734.3711139-.1982929.4990639-.3261585.1407702-.1278656.2431639-.2365851.3070967-.3261585.115214-.1278656.2047874-.2046187.2688046-.230175.076753-.0383765.1918827-.057607.3453889-.057607h1.996424c.128203 0 .2302593.0383766.3070124.1151297.0894047.0639328.128203.1599163.1155514.2877819-.0126516.2046187-.1214555.4604343-.3264116.7673623-.1923044.2941921-.4799177.5882999-.8636832.882492-.3846089.2813718-.8636832.5179569-1.4399219.7097553-.5630809.1918827-1.2157353.2877819-1.9579631.2877819zm-1.9003561-6.1197523h3.7623357v-.0383765c0-.4603499-.0768374-.8568514-.2303436-1.18942-.1407703-.3453046-.3519678-.6138561-.6335083-.8057389-.2815405-.1917984-.6206036-.2876976-1.0173581-.2876976-.3966702 0-.7358176.0958992-1.0173581.2876976-.2815405.1918828-.4990639.4604343-.6526544.8057389-.1407702.3325686-.2111132.7290701-.2111132 1.18942z"/><path d="m89.7454585 20.9946715c-.1408546 0-.256406-.0447867-.3458107-.1343601-.0894047-.089489-.134107-.2046187-.134107-.3453046v-12.66150322c0-.14067746.0447023-.25579024.134107-.34531303s.2049561-.13428419.3458107-.13428419h1.9188275c.1282029 0 .2370068.0447614.3264115.13428419.0902481.08952279.1349505.20463557.1349505.34531303v12.66150322c0 .1406859-.0447024.2558156-.1349505.3453046-.0894047.0895734-.1982086.1343601-.3264115.1343601z"/><path d="m95.3189143 24.6396003c-.1400112 0-.2555625-.0447024-.3449672-.1342758-.0894048-.089489-.1341071-.2046187-.1341071-.3453046v-12.6615623c0-.1406859.0447023-.2557312.1341071-.3453046.0894047-.089489.204956-.1342757.3449672-.1342757h1.8243621c.1400111 0 .2555625.0447867.3449672.1342757.0894047.0895734.1349505.2046187.1349505.3453046v.7290701c.3070124-.4093217.7034295-.741806 1.1900948-.9976216.4858218-.2685515 1.0939425-.4028272 1.8235191-.4028272.665474 0 1.240701.1087195 1.727366.3260741.499317.2046187.915133.505221 1.247449.9016381.34581.3837655.60812.8505255.78693 1.4004488.192304.5500077.301108 1.1702739.326411 1.8608831.012652.2429953.019399.4732546.019399.6906092 0 .217439-.006747.4540241-.019399.7098397-.012651.6522326-.114708 1.2533528-.307012 1.8032761-.178809.5500076-.441119 1.0231778-.78693 1.4196793-.345811.3964171-.767531.7034295-1.266848.9207841-.486665.217439-1.061892.3261585-1.727366.3261585-.6528235 0-1.2221459-.1151296-1.7088112-.3453046-.4731702-.2429952-.8636832-.5691537-1.1706956-.9783911v4.2972457c0 .1406859-.0447024.2558156-.1341071.3453046-.0902481.0895734-.199052.1342758-.3264115.1342758zm4.4533666-5.7552173c.4866651 0 .8704311-.1023093 1.1521401-.306928.281709-.217439.479918-.4988108.594625-.8441154.128203-.3453046.204957-.7225756.231103-1.1318974.025303-.3964171.025303-.7929185 0-1.18942-.026146-.4092374-.1029-.7865084-.231103-1.131813-.114707-.3453046-.312916-.6202662-.594625-.8249693-.281709-.2173546-.665475-.3260741-1.1521401-.3260741-.4731702 0-.8569357.1087195-1.1512965.3260741-.2943608.217439-.5052209.4924007-.6334239.8249693-.128203.3324843-.2049561.6906092-.2302593 1.0742904-.0126516.2301749-.0193991.4668444-.0193991.7098396 0 .2429953.0067475.4859905.0193991.7289858.0126516.3581249.0894047.6970193.2302593 1.0167677.1535062.306928.3711139.5627436.652823.7673623.2943608.2046187.6713788.306928 1.1318974.306928z"/><path d="m110.004903 21.1864699c-.678126 0-1.285404-.1278656-1.823519-.3836811-.537272-.2685515-.965739-.6266764-1.286247-1.0742904-.319664-.4476139-.479074-.9464247-.479074-1.496348 0-.9080482.364366-1.624298 1.093942-2.1486651.742228-.524367 1.714715-.8824919 2.917462-1.0742903l2.514296-.3645351v-.3453046c0-.4987264-.114708-.8824076-.344967-1.1510434-.230259-.2685515-.633424-.4028273-1.209494-.4028273-.422564 0-.761627.0830789-1.017189.2494054-.256406.1662422-.454615.3836812-.595469.6522327-.102057.1662421-.249659.2494054-.44112.2494054h-1.823519c-.140854 0-.249658-.0383766-.326411-.1151297-.076753-.089489-.108804-.1917984-.096152-.306928 0-.217439.0835-.4732546.249658-.7673623.166158-.2941921.422564-.5819741.767531-.8632615.345811-.2941921.78693-.5371874 1.325045-.7290701.537272-.1917984 1.195999-.2876976 1.977025-.2876976.806329 0 1.497107.0958992 2.073177.2876976.575227.1918827 1.036589.4604342 1.381556.8057388.345811.3453046.601373.7482162.768374 1.2086505.166158.4476139.249659.9336044.249659 1.4579715v5.9278695c0 .1406859-.045546.2558156-.134951.3453046-.089404.0895734-.204956.1343601-.344967.1343601h-1.881716c-.128203 0-.236163-.0447867-.326411-.1343601-.089405-.089489-.134107-.2046187-.134107-.3453046v-.7097553c-.166158.2429953-.390514.4731702-.672223.6906092-.280865.2046187-.619929.3708609-1.017189.4988108-.383766.1278656-.83838.1917984-1.363.1917984zm.768374-1.9951588c.421721 0 .799582-.0894891 1.131898-.2685515.333159-.1790625.595469-.4540241.787773-.824885.191461-.3709452.287613-.8377052.287613-1.4004488v-.3261585l-1.785563.2877819c-.690778.1150453-1.195999.287782-1.516507.5179569-.319664.230175-.479074.5115468-.479074.8441154 0 .2429953.070006.4540241.21086.6330866.153506.1790624.351715.3133382.594626.4028272.243754.0895734.499317.1342758.768374.1342758z"/><path d="m120.014856 24.6396003c-.102056 0-.198208-.0383766-.287613-.1150453-.077596-.0767531-.115551-.1726523-.115551-.287782 0-.0255562.006747-.0639328.019399-.1151296.012652-.0383766.032051-.0894891.057354-.1534219l1.497107-3.5874904-3.684992-8.6903907c-.038798-.1023094-.058198-.1854726-.058198-.2494054.012652-.1151297.058198-.2110289.134951-.287782.076753-.089489.172062-.1342757.287613-.1342757h1.862317c.166158 0 .287613.0447867.364366.1342757.076754.0767531.134108.1599164.172906.2494054l2.380189 5.9471 2.437544-5.9471c.05145-.1023093.115551-.1917984.192304-.2685515s.198209-.1151296.364367-.1151296h1.823518c.115552 0 .211704.0447867.288457.1342757.089405.0767531.134107.1663265.134107.2686359 0 .0639328-.025303.1534218-.076753.2685515l-5.432601 12.5655787c-.037955.1023094-.102057.1918828-.191461.2686359-.076753.0766687-.199052.1150453-.36521.1150453z"/><path d="m133.901263 21.1864699c-1.061892 0-1.951721-.1726523-2.667803-.5179569-.716924-.3581249-1.266847-.8632615-1.651456-1.5155785-.371114-.6522326-.575227-1.4131848-.614025-2.2828564-.012652-.2558156-.019399-.5435975-.019399-.8633459 0-.3324843.006747-.6202662.019399-.8632615.038798-.8824919.256406-1.6434441.652823-2.2829408.396417-.6522326.953088-1.1510434 1.670012-1.496348.716925-.3580406 1.586512-.537103 2.610449-.537103 1.011286 0 1.874969.1790624 2.591893.537103.716081.3453046 1.272752.8441154 1.670013 1.496348.396417.6394967.614025 1.4004489.651979 2.2829408.026147.2429953.038799.5307772.038799.8632615 0 .3197484-.012652.6075303-.038799.8633459-.037954.8696716-.249658 1.6306238-.633424 2.2828564-.371113.652317-.915133 1.1574536-1.631214 1.5155785-.716924.3453046-1.600007.5179569-2.649247.5179569zm0-2.1102041c.62752 0 1.10069-.1918828 1.420354-.5755639.320508-.3965015.49257-.971981.518716-1.7266074.012652-.1917984.018556-.4476139.018556-.7673623 0-.319664-.005904-.5754795-.018556-.7673623-.026146-.7417217-.198208-1.3108754-.518716-1.7073769-.319664-.3964171-.792834-.59471-1.420354-.59471-.626676 0-1.106594.1982929-1.439753.59471-.319664.3965015-.492569.9656552-.517873 1.7073769-.012651.1918828-.019399.4476983-.019399.7673623 0 .3197484.006748.5755639.019399.7673623.025304.7546264.198209 1.3301059.517873 1.7266074.333159.3836811.813077.5755639 1.439753.5755639z"/><path d="m144.815385 21.1864699c-.742228 0-1.400955-.1662421-1.977025-.4988108-.562575-.3453046-1.004538-.8377052-1.324202-1.4771176-.307012-.652317-.460518-1.4388254-.460518-2.3596939v-5.35239c0-.1406859.044702-.2557312.134107-.3453046.089405-.089489.198208-.1342757.326411-.1342757h2.034379c.140855 0 .256406.0447867.345811.1342757.089405.0895734.134107.2046187.134107.3453046v5.2373447c0 1.4324153.62752 2.1485807 1.881716 2.1485807.601373 0 1.074543-.1854726 1.420354-.5563334.358462-.3836812.537272-.9144584.537272-1.5922473v-5.2373447c0-.1406859.044702-.2557312.134107-.3453046.089405-.089489.204956-.1342757.345811-.1342757h2.034378c.128203 0 .237007.0447867.326412.1342757.089405.0895734.134107.2046187.134107.3453046v9.0165492c0 .1406859-.044702.2558156-.134107.3453046-.089405.0895734-.198209.1343601-.326412.1343601h-1.880872c-.140855 0-.255563-.0447867-.345811-.1343601-.089405-.089489-.134107-.2046187-.134107-.3453046v-.7481318c-.332316.4604342-.761627.812149-1.286247 1.0551442-.52462.2429953-1.164791.3644507-1.919671.3644507z"/><path d="m158.34586 20.9946715c-.793678 0-1.471804-.1279499-2.035222-.3836811-.562575-.2686359-.991043-.6778733-1.285404-1.2277966-.281709-.5499233-.422564-1.2406168-.422564-2.0719119v-4.0286943h-1.497107c-.140854 0-.256406-.0447023-.34581-.1342757-.089405-.0894891-.134107-.2046187-.134107-.3453046v-1.3045497c0-.1406859.044702-.2557312.134107-.3453046.089404-.089489.204956-.1342757.34581-.1342757h1.497107v-3.16537372c0-.14067746.044703-.25579024.134107-.34531303.1029-.08952279.217608-.13428419.345811-.13428419h1.880873c.140854 0 .256406.0447614.34581.13428419.089405.08952279.134107.20463557.134107.34531303v3.16537372h2.399589c.128203 0 .237007.0447867.326412.1342757.089404.0895734.134107.2046187.134107.3453046v1.3045497c0 .1406859-.044703.2558155-.134107.3453046-.089405.0895734-.198209.1342757-.326412.1342757h-2.399589v3.7985193c0 .4859905.083501.8696717.249659 1.1510435.179653.2685515.486665.4028272.921881.4028272h1.400954c.128203 0 .237007.0447867.326412.1342758.089405.0895734.134107.1982929.134107.3261585v1.4195949c0 .1406859-.044702.2558156-.134107.3453046-.089405.0895734-.198209.1343601-.326412.1343601z"/><path d="m166.373728 21.1864699c-.792834 0-1.477708-.089489-2.053778-.2685515-.562575-.1918827-1.023093-.4220577-1.381556-.6906092-.34581-.2686358-.60812-.5371873-.78693-.8057388-.167001-.2813718-.256406-.5180413-.269057-.7098397-.012652-.1406859.03205-.2558155.134107-.3453046.102899-.0895734.204956-.1342757.307012-.1342757h1.862317c.038798 0 .076753.0064101.115551.0191461.037955.0128203.076753.0447867.114708.0958992.166158.1151296.339063.2494054.518716.4029116.17881.1406859.383766.2621413.614025.3644507.242911.1023937.544019.1535062.902482.1535062.42172 0 .780182-.0831633 1.074543-.2494054.294361-.1790625.441119-.4284679.441119-.7481319 0-.2302593-.070005-.4220577-.21086-.5755639-.128203-.1535062-.377018-.2941921-.748132-.4220577-.371113-.1278656-.92188-.2685515-1.651456-.4220577-.690778-.1534218-1.2795-.3581249-1.766165-.6138561-.485822-.2558155-.850188-.5755639-1.093943-.959245-.24291-.3964171-.364366-.8696717-.364366-1.419595 0-.4988108.153506-.9783911.460519-1.4388254.319664-.4604342.78693-.8377052 1.400955-1.1318973.614868-.3069281 1.382399-.4603499 2.303436-.4603499.704273 0 1.318298.089489 1.842918.2685515.538115.1662421.985982.3836811 1.343601.6522326.358462.2558156.62752.5243671.806329.8057389.192304.2686358.294361.5052209.307012.7098396.013495.1278656-.025303.2365851-.114708.3261585-.089404.0894891-.192304.1342758-.307012.1342758h-1.708811c-.064101 0-.121455-.0064102-.172905-.0192305-.050606-.0255562-.095309-.0575226-.134107-.0958992-.153506-.1023093-.31376-.217439-.479918-.3453046-.153506-.1406859-.339063-.2622257-.556671-.364535-.217607-.1023094-.499317-.1534219-.844284-.1534219-.422563 0-.748975.0958992-.979234.2876976-.217608.1790625-.326412.4093218-.326412.6906936 0 .1790624.057354.3453046.172905.4987264.114708.1535062.351715.2941921.710178.4220577.358462.12795.902481.2622257 1.631214.4029116.87043.1534219 1.562052.3836812 2.073177.6906092.511968.3069281.877178.665053 1.094786 1.0742904.230259.3965014.344967.8249693.344967 1.2854035 0 .6010358-.178809 1.1382232-.537272 1.6113934-.358462.4604342-.883082.8249693-1.57386 1.0935208-.678126.2558155-1.516506.3836811-2.51514.3836811z"/></g></g></svg>