<svg height="20" viewBox="0 0 20 20" width="20" xmlns="http://www.w3.org/2000/svg"><g fill="none"><path d="m0 3.90244131c0-2.15525821 1.7471831-3.90244131 3.90244131-3.90244131h12.19511739c2.1553051 0 3.9024413 1.7471831 3.9024413 3.90244131v12.19511739c0 2.1553051-1.7471362 3.9024413-3.9024413 3.9024413h-12.19511739c-2.15525821 0-3.90244131-1.7471362-3.90244131-3.9024413z" fill="#006dff"/><path d="m18.1296714 8.23041315c-.3257277-1.06026292-1.0324883-1.86426292-2.0430047-2.32576526-1.2849766-.5867324-2.7456338-.49592489-3.9075118.24256338-.7782159.49467605-1.3878873 1.23980281-1.8119249 2.21506103-.42816897.98478873-.65549291 2.1955681-.67539901 3.5982911-.00206573.1596244-.00413146.3138967-.00619719.4631925-.00244131.2123004-.22525821.3503286-.41450704.2558685-.25873239-.1290141-.49515493-.2865728-.71090141-.4739906-.92002817-.799061-1.49453521-2.1549296-1.71358685-4.04074178h1.88635681c.31328638 0 .56747417-.2550047.56747417-.56931456v-1.59804694c0-.31430986-.25418779-.56931456-.56747417-.56931456h-1.97604695c.05233802-1.8161784.27075117-3.86239436.51395305-5.42821596h-2.76067606c-.23885446 1.63194366-.43707981 3.61570892-.48362441 5.42821596h-1.99877934c-.31328639 0-.56747418.2550047-.56747418.56931456v1.59804694c0 .31430986.25418779.56931456.56747418.56931456h2.0769014c.26988733 2.75116428 1.16512677 4.80327698 2.67040376 6.11022538.78199061.6787793 1.71029108 1.1411267 2.77294836 1.3837558.12356807.0281691.21446009.1338968.22319249.2612207.0713615 1.0169014.19305164 2.2685446.39417839 4.0799061h2.7435681c-.2003756-1.7831925-.3242254-3.0169014-.3987794-4.003662-.0111737-.1450704.0872301-.2761502.2298592-.3047887.469108-.0928639.9811268-.2342723 1.5102347-.4461033 1.4205634-.5685446 2.5534273-1.5006573 3.2763381-2.6960563.6369014-1.0532395 1.0704225-2.79718313.6025352-4.31856341zm-2.9349296 2.89925825c-.4191549.6928638-1.0767136 1.2223474-1.9550235 1.5735211-.1549296.0622535-.3082629.1153052-.4579343.1604695-.1855399.0564319-.3719248-.0853521-.3698761-.2799061.0020827-.1865728.004524-.3801878.0074348-.584601.0247888-1.7730516.4694836-3.06301405 1.2196244-3.53985913.2397183-.1521784.4802817-.20234741.6931456-.20234741.2753051 0 .5042253.08375587.624507.13891079.2968075.13558686.4716432.3333709.5662911.6414554.1975587.64315493-.0115493 1.56907045-.328169 2.09273235z" fill="#fff"/></g></svg>