<svg fill="none" height="1em" viewBox="0 0 213 213" width="1em" xmlns="http://www.w3.org/2000/svg"><path d="m0 41.561c0-22.9535 18.6075-41.561 41.561-41.561h129.878c22.954 0 41.561 18.6075 41.561 41.561v129.878c0 22.954-18.607 41.561-41.561 41.561h-129.878c-22.9535 0-41.561-18.607-41.561-41.561z" fill="#9fa3a7"/><path d="m193.081 87.6539c-3.469-11.2918-10.996-19.8544-21.758-24.7694-13.685-6.2487-29.241-5.2816-41.615 2.5833-8.288 5.2683-14.781 13.2039-19.297 23.5904-4.56 10.488-6.981 23.3828-7.192 38.3218-.023 1.7-.045 3.343-.067 4.933-.026 2.261-2.399 3.731-4.4145 2.725-2.7555-1.374-5.2733-3.052-7.5711-5.048-9.7983-8.51-15.9168-22.95-18.2497-43.0339h20.0897c3.3365 0 6.0436-2.7158 6.0436-6.0632v-17.0192c0-3.3474-2.7071-6.0632-6.0436-6.0632h-21.0449c.5574-19.3423 2.8835-41.1345 5.4736-57.81044985l-29.4012-.00005015c-2.5438 17.3802-4.6549 38.5073-5.1506 57.8105h-21.287c-3.3365 0-6.0436 2.7158-6.0436 6.0632v17.0192c0 3.3474 2.7071 6.0632 6.0436 6.0632h22.119c2.8743 29.2999 12.4086 51.1549 28.4399 65.0739 8.3281 7.229 18.2145 12.153 29.5318 14.737 1.316.3 2.284 1.426 2.377 2.782.76 10.83 2.056 24.16 4.198 43.451h29.219c-2.134-18.991-3.453-32.13-4.247-42.639-.119-1.545.929-2.941 2.448-3.246 4.996-.989 10.449-2.495 16.084-4.751 15.129-6.055 27.194-15.982 34.893-28.713 6.783-11.217 11.4-29.79 6.417-45.9927zm-31.257 30.8771c-4.464 7.379-11.467 13.018-20.821 16.758-1.65.663-3.283 1.228-4.877 1.709-1.976.601-3.961-.909-3.939-2.981.022-1.987.048-4.049.079-6.226.264-18.883 5-32.6211 12.989-37.6995 2.553-1.6207 5.115-2.155 7.382-2.155 2.932 0 5.37.892 6.651 1.4794 3.161 1.444 5.023 3.5504 6.031 6.8315 2.104 6.8496-.123 16.7106-3.495 22.2876z" fill="#fff"/></svg>