<svg height="36" viewBox="0 0 36 36" width="36" xmlns="http://www.w3.org/2000/svg"><g fill="none"><path d="m0 7.02439437c0-3.87946479 3.14492958-7.02439437 7.02439437-7.02439437h21.95121123c3.8795493 0 7.0243944 3.14492958 7.0243944 7.02439437v21.95121123c0 3.8795493-3.1448451 7.0243944-7.0243944 7.0243944h-21.95121123c-3.87946479 0-7.02439437-3.1448451-7.02439437-7.0243944z" fill="#006dff"/><path d="m32.6334085 14.8147437c-.5863099-1.9084733-1.8584789-3.3556733-3.6774085-4.1863775-2.3129577-1.05611831-4.9421408-.89266479-7.0335211.4366141-1.4007888.8904169-2.4981972 2.2316451-3.2614648 3.9871098-.7707042 1.7726198-1.1798873 3.9520226-1.2157183 6.476924-.0037183.2873239-.0074366.5650141-.011155.8337465-.0043943.3821408-.4054647.6305915-.7461126.4605633-.4657183-.2322253-.8912789-.5158309-1.2796226-.8531831-1.6560507-1.4383098-2.6901633-3.8788732-3.0844563-7.2733352h3.3954422c.5639155 0 1.0214536-.4590084 1.0214536-1.0247662v-2.8764845c0-.5657577-.4575381-1.02476617-1.0214536-1.02476617h-3.5568845c.0942085-3.26912112.4873522-6.95230986.9251155-9.77078873h-4.96921687c-.42993802 2.93749859-.78674366 6.50827606-.87052394 9.77078873h-3.59780282c-.56391549 0-1.02145352.45900847-1.02145352 1.02476617v2.8764845c0 .5657578.45753803 1.0247662 1.02145352 1.0247662h3.73842254c.48579718 4.9520958 2.09722817 8.6458986 4.80672679 10.9984057 1.4075831 1.2218028 3.0785239 2.0540281 4.991307 2.4907605.2224225.0507043.3860282.2410141.4017465.4701972.1284507 1.8304225.3474929 4.0833803.7095211 7.343831h4.9384226c-.3606761-3.2097465-.5836057-5.4304225-.7178029-7.2065915-.0201126-.2611268.1570141-.4970705.4137465-.5486198.8443944-.1671549 1.7660282-.4216901 2.7184225-.8029859 2.5570141-1.0233803 4.5961691-2.7011831 5.8974085-4.8529014 1.1464225-1.895831 1.9267606-5.0349296 1.0845634-7.7734141zm-5.2828733 5.2186648c-.7544789 1.2471549-1.9380845 2.2002253-3.5190422 2.832338-.2788733.1120563-.5548733.2075493-.8242817.288845-.3339719.1015775-.6694648-.1536338-.6657771-.5038309.0037489-.335831.0081433-.6843381.0133827-1.0522817.0446197-3.191493.8450704-5.5134254 2.1953239-6.3717465.431493-.2739211.8645071-.3642254 1.247662-.3642254.4955493 0 .9076057.1507606 1.1241127.2500395.5342535.2440563.8489577.6000676 1.0193239 1.1546197.3556057 1.1576789-.0207887 2.8243268-.5907042 3.7669183z" fill="#fff"/></g></svg>