<svg width="144" height="144" viewBox="0 0 144 144" fill="none" xmlns="http://www.w3.org/2000/svg">
<path d="M0 28.0976C0 12.5797 12.5797 0 28.0976 0H115.902C131.42 0 144 12.5797 144 28.0976V115.902C144 131.42 131.42 144 115.902 144H28.0976C12.5797 144 0 131.42 0 115.902V28.0976Z" fill="#006DFF"/>
<path d="M130.534 59.2589C128.189 51.6251 123.1 45.8363 115.824 42.5135C106.572 38.289 96.0554 38.9428 87.6903 44.2599C82.0868 47.8216 77.6974 53.1865 74.6442 60.2083C71.5612 67.2988 69.9245 76.0164 69.7817 86.1162C69.7668 87.2656 69.7519 88.3762 69.737 89.451C69.7192 90.9795 68.1152 91.9737 66.7522 91.293C64.8894 90.3645 63.1872 89.23 61.6338 87.8806C55.0095 82.1276 50.8731 72.3651 49.2959 58.7872H62.8777C65.1334 58.7872 66.9635 56.9512 66.9635 54.6882V43.1822C66.9635 40.9192 65.1334 39.0831 62.8777 39.0831H48.6502C49.027 26.0067 50.5996 11.2739 52.3507 3.39032e-05L32.4738 0C30.754 11.75 29.3268 26.0331 28.9917 39.0831H14.6005C12.3448 39.0831 10.5146 40.9192 10.5146 43.1822V54.6882C10.5146 56.9512 12.3448 58.7872 14.6005 58.7872H29.5541C31.4974 78.5958 37.9431 93.3709 48.7811 102.781C54.4114 107.668 61.0952 110.997 68.7461 112.744C69.6358 112.947 70.2905 113.708 70.353 114.624C70.8668 121.946 71.7435 130.958 73.1913 144H92.945C91.5025 131.161 90.6105 122.278 90.074 115.174C89.9936 114.129 90.7019 113.185 91.7286 112.979C95.1061 112.311 98.7932 111.293 102.602 109.767C112.83 105.674 120.987 98.9627 126.192 90.3556C130.778 82.7725 133.899 70.2156 130.531 59.2619L130.534 59.2589ZM109.402 80.1333C106.385 85.122 101.65 88.9345 95.3264 91.4632C94.2104 91.911 93.1064 92.2931 92.0291 92.6185C90.693 93.0246 89.3508 92.0035 89.3657 90.6033C89.3806 89.2599 89.3985 87.8657 89.4193 86.3939C89.5978 73.628 92.7999 64.3402 98.201 60.9069C99.927 59.8113 101.659 59.45 103.192 59.45C105.173 59.45 106.822 60.0531 107.688 60.4502C109.825 61.4264 111.083 62.8505 111.765 65.0687C113.187 69.6991 111.682 76.3657 109.402 80.1363V80.1333Z" fill="white"/>
</svg>
